<?xml version="1.0" standalone="no"?>
<!DOCTYPE svg PUBLIC "-//W3C//DTD SVG 20010904//EN"
 "http://www.w3.org/TR/2001/REC-SVG-20010904/DTD/svg10.dtd">
<svg version="1.0" xmlns="http://www.w3.org/2000/svg"
 width="76.000000pt" height="76.000000pt" viewBox="0 0 76.000000 76.000000"
 preserveAspectRatio="xMidYMid meet">
<metadata>
Created by potrace 1.14, written by Peter Selinger 2001-2017
</metadata>
<g transform="translate(0.000000,76.000000) scale(0.100000,-0.100000)"
fill="#000000" stroke="none">
<path d="M313 710 c-42 -25 -66 -64 -67 -106 -1 -32 -3 -34 -26 -28 -163 44
-252 -183 -99 -252 l36 -17 -22 -41 c-21 -38 -22 -45 -10 -90 28 -106 146
-140 225 -65 l31 31 29 -31 c32 -33 81 -47 128 -36 37 8 89 56 98 90 9 37 -2
104 -20 124 -15 16 -13 19 22 34 111 49 102 212 -15 252 -36 13 -45 13 -88 0
-17 -5 -20 -1 -21 29 -1 65 -66 126 -134 126 -19 0 -49 -9 -67 -20z m113 -26
c70 -33 75 -108 13 -194 -34 -47 -44 -48 -27 -3 9 25 9 35 -1 47 -32 38 -83 4
-64 -42 6 -15 14 -36 19 -47 5 -13 -1 -9 -17 10 -71 85 -89 150 -53 197 33 46
78 57 130 32z m-196 -151 c33 -22 68 -61 87 -97 l16 -30 -32 27 c-18 15 -39
27 -46 27 -22 0 -45 -29 -38 -48 10 -26 22 -31 70 -27 24 2 43 2 43 -1 0 -10
-133 -42 -164 -39 -42 4 -61 17 -82 57 -46 89 64 187 146 131z m408 1 c30 -21
52 -67 50 -100 -2 -16 -17 -42 -35 -60 -28 -29 -38 -32 -76 -29 -51 4 -127 25
-127 35 0 4 14 5 30 2 20 -3 37 2 50 13 24 22 25 29 4 49 -22 22 -38 20 -76
-11 l-33 -28 20 31 c68 106 134 139 193 98z m-312 -197 c-62 -40 -77 -72 -45
-95 29 -20 58 1 65 49 11 66 19 52 17 -27 -4 -115 -34 -157 -109 -157 -53 0
-91 29 -100 80 -13 67 21 105 129 143 61 22 69 23 43 7z m210 -33 c53 -25 74
-54 74 -102 0 -57 -60 -105 -121 -95 -61 9 -87 50 -92 143 -4 68 7 89 17 35 6
-29 29 -55 50 -55 9 0 36 31 36 41 0 6 -15 24 -32 41 -31 28 -32 30 -8 23 14
-4 48 -17 76 -31z"/>
</g>
</svg>
